<svg width="139" height="17" viewBox="0 0 139 17" fill="none" xmlns="http://www.w3.org/2000/svg">
<path d="M32.1899 6.16663H20.5369L20.1194 6.4953V16.6653H23.3252V12.837L23.6191 12.5515H32.1899C34.3573 12.5515 35.3544 11.9777 35.3544 10.5067V8.16829C35.3544 6.73776 34.3573 6.16663 32.1899 6.16663ZM32.1899 9.9248C32.1899 10.6199 31.7311 10.733 30.69 10.733H23.674L23.3389 10.4474V8.29222L23.6328 8.00665H30.7119C31.7119 8.00665 32.2118 8.12788 32.2118 8.81486V9.91672L32.1899 9.9248Z" fill="white"/>
<path d="M41.277 8.08749L44.068 12.0908L43.9004 12.4599H37.7361L36.1538 14.378H45.3179L45.9827 14.7471L47.4002 16.6653H51.1059L42.9857 6.04541" fill="white"/>
<path d="M78.0543 14.6232V11.7649L78.3894 11.4793H84.595V9.68237H74.7661V16.6653H89.2595V14.8684H78.4307" fill="white"/>
<path d="M89.3858 6.16934H74.7661V8.1306H89.3858V6.16934Z" fill="white"/>
<path d="M58.4816 8.04708H70.2691C70.1016 6.57614 69.1429 6.16125 66.8106 6.16125H58.3553C55.6906 6.16125 54.8555 6.65157 54.8555 8.65323V14.2137C54.8555 16.175 55.6796 16.7057 58.3553 16.7057H66.8024C69.1758 16.7057 70.0988 16.2558 70.1757 14.7444H58.4734L58.1382 14.4185V8.29223" fill="white"/>
<path d="M12.2051 10.2508H3.66735L3.41737 9.96522V8.1683L3.66735 7.96355H15.2049L15.3697 7.59716C14.9961 6.61653 13.955 6.12622 12.0733 6.12622H4.04095C1.37632 6.12622 0.543974 6.61653 0.543974 8.6182V9.80357C0.543974 11.7621 1.36808 12.2956 4.04095 12.2956H12.5815L12.8315 12.5407V14.4265L12.6227 14.7121H0.293994C0.293994 14.7121 6.10352e-05 14.8764 6.10352e-05 14.9168C0.208836 16.307 1.16755 16.6734 3.45858 16.6734H12.2051C14.8698 16.6734 15.7461 16.183 15.7461 14.1814V12.7428C15.7461 10.7842 14.8698 10.2508 12.2051 10.2508Z" fill="white"/>
<path d="M98.591 6.12622H93.759L93.509 6.61653L98.841 10.4555C99.8409 9.88439 100.964 9.31326 102.137 8.73943" fill="white"/>
<path d="M102.923 13.3166L107.629 16.6653H112.461L112.67 16.2154L105.673 11.191C104.755 11.8861 103.797 12.5811 102.926 13.3166" fill="white"/>
<path d="M97.8824 16.6653H93.5091L93.1355 16.0941C96.0913 13.2735 109.343 1.27697 138.118 0C138.118 0 114.002 0.808209 97.8824 16.6653Z" fill="#B2B0B2"/>
</svg>
